<svg id="Layer_1" data-name="Layer 1" xmlns="http://www.w3.org/2000/svg" viewBox="0 0 251.12 251.12"><defs><style>.cls-1{fill-rule:evenodd;}</style></defs><title>b (blackl)</title><path class="cls-1" d="M761.26,442.06a125.19,125.19,0,1,0,4.22,27.88,126.31,126.31,0,0,0-4.22-27.88Zm-11,3a114.12,114.12,0,1,1-139.77-80.7A114.12,114.12,0,0,1,750.24,445Z" transform="translate(-514.44 -348.99)"/><path class="cls-1" d="M573.49,571l15,11.35,82.76-22.18q27.18-7.56,42.32-20.27t19.92-27.67a50.59,50.59,0,0,0,.86-29.28Q730.24,469,720.66,461a78.68,78.68,0,0,0-20.76-12.5h0a30.88,30.88,0,0,0,5.74-14.19,43.06,43.06,0,0,0-1.36-17.15q-3.36-12.69-14.44-21.95t-29.52-12.09q-18.44-2.84-43.9,3.73l-73.22,19.62-9.91,14.37,5.48,20.46,5-1.35,9.38-2.51,5-1.35,3.15,11.74,7.5,28,9,33.41,7.5,28L588.47,549l-5,1.35L574,552.83l-5,1.35,4.5,16.79Zm51.33-152.71q11.84-2.84,19.1,1.25a18.15,18.15,0,0,1,9.19,11.38,17.78,17.78,0,0,1-2.3,14.33q-4.27,7.07-16,10.51l-4.07,1.09-7.56,2-4.07,1.09-1.57-5.86-3.45-12.88-3.45-12.88-1.57-5.86,15.71-4.21ZM662.91,529l-13.31,3.57-10.25,2.75-1.84-6.88-4.05-15.13-4.05-15.13-1.84-6.88L651.12,485q11.87-3,21.13,1.11a20.54,20.54,0,0,1,12.06,13.44,20.84,20.84,0,0,1-3.66,17.89q-6,8.19-17.73,11.56Z" transform="translate(-514.44 -348.99)"/></svg>